<mxfile host="Electron" modified="2023-06-15T02:45:50.187Z" agent="Mozilla/5.0 (Macintosh; Intel Mac OS X 10_15_7) AppleWebKit/537.36 (KHTML, like Gecko) draw.io/21.2.8 Chrome/112.0.5615.165 Electron/24.2.0 Safari/537.36" etag="IvQdww6_D9V6i2vvX5nq" version="21.2.8" type="device" pages="10">
  <diagram id="B2zCePrTYqFFAP35DklE" name="qsort best">
    <mxGraphModel dx="1114" dy="776" grid="1" gridSize="10" guides="1" tooltips="1" connect="1" arrows="1" fold="1" page="1" pageScale="1" pageWidth="850" pageHeight="1100" math="1" shadow="0">
      <root>
        <mxCell id="0" />
        <mxCell id="1" parent="0" />
        <mxCell id="RJbc93FVTb6hfc-xO98S-13" style="rounded=0;orthogonalLoop=1;jettySize=auto;html=1;exitX=0.5;exitY=1;exitDx=0;exitDy=0;entryX=0.5;entryY=0;entryDx=0;entryDy=0;fontSize=17;" parent="1" source="RJbc93FVTb6hfc-xO98S-1" target="RJbc93FVTb6hfc-xO98S-2" edge="1">
          <mxGeometry relative="1" as="geometry" />
        </mxCell>
        <mxCell id="RJbc93FVTb6hfc-xO98S-14" style="edgeStyle=none;rounded=0;orthogonalLoop=1;jettySize=auto;html=1;exitX=0.5;exitY=1;exitDx=0;exitDy=0;entryX=0.5;entryY=0;entryDx=0;entryDy=0;fontSize=17;" parent="1" source="RJbc93FVTb6hfc-xO98S-1" target="RJbc93FVTb6hfc-xO98S-3" edge="1">
          <mxGeometry relative="1" as="geometry" />
        </mxCell>
        <mxCell id="RJbc93FVTb6hfc-xO98S-1" value="`n`" style="rounded=0;whiteSpace=wrap;html=1;fontSize=17;" parent="1" vertex="1">
          <mxGeometry x="120" y="150" width="320" height="50" as="geometry" />
        </mxCell>
        <mxCell id="RJbc93FVTb6hfc-xO98S-15" style="edgeStyle=none;rounded=0;orthogonalLoop=1;jettySize=auto;html=1;exitX=0.5;exitY=1;exitDx=0;exitDy=0;entryX=0.5;entryY=0;entryDx=0;entryDy=0;fontSize=17;" parent="1" source="RJbc93FVTb6hfc-xO98S-2" target="RJbc93FVTb6hfc-xO98S-4" edge="1">
          <mxGeometry relative="1" as="geometry" />
        </mxCell>
        <mxCell id="RJbc93FVTb6hfc-xO98S-16" style="edgeStyle=none;rounded=0;orthogonalLoop=1;jettySize=auto;html=1;exitX=0.5;exitY=1;exitDx=0;exitDy=0;entryX=0.5;entryY=0;entryDx=0;entryDy=0;fontSize=17;" parent="1" source="RJbc93FVTb6hfc-xO98S-2" target="RJbc93FVTb6hfc-xO98S-5" edge="1">
          <mxGeometry relative="1" as="geometry" />
        </mxCell>
        <mxCell id="RJbc93FVTb6hfc-xO98S-2" value="$$\frac{n}{2}$$" style="rounded=0;whiteSpace=wrap;html=1;fontSize=17;" parent="1" vertex="1">
          <mxGeometry x="100" y="230" width="160" height="50" as="geometry" />
        </mxCell>
        <mxCell id="RJbc93FVTb6hfc-xO98S-17" style="edgeStyle=none;rounded=0;orthogonalLoop=1;jettySize=auto;html=1;exitX=0.5;exitY=1;exitDx=0;exitDy=0;entryX=0.5;entryY=0;entryDx=0;entryDy=0;fontSize=17;" parent="1" source="RJbc93FVTb6hfc-xO98S-3" target="RJbc93FVTb6hfc-xO98S-6" edge="1">
          <mxGeometry relative="1" as="geometry" />
        </mxCell>
        <mxCell id="RJbc93FVTb6hfc-xO98S-18" style="edgeStyle=none;rounded=0;orthogonalLoop=1;jettySize=auto;html=1;exitX=0.5;exitY=1;exitDx=0;exitDy=0;entryX=0.5;entryY=0;entryDx=0;entryDy=0;fontSize=17;" parent="1" source="RJbc93FVTb6hfc-xO98S-3" target="RJbc93FVTb6hfc-xO98S-7" edge="1">
          <mxGeometry relative="1" as="geometry" />
        </mxCell>
        <mxCell id="RJbc93FVTb6hfc-xO98S-3" value="$$\frac{n}{2}$$" style="rounded=0;whiteSpace=wrap;html=1;fontSize=17;" parent="1" vertex="1">
          <mxGeometry x="300" y="230" width="160" height="50" as="geometry" />
        </mxCell>
        <mxCell id="RJbc93FVTb6hfc-xO98S-4" value="$$\frac{n}{4}$$" style="rounded=0;whiteSpace=wrap;html=1;fontSize=17;" parent="1" vertex="1">
          <mxGeometry x="90" y="310" width="80" height="50" as="geometry" />
        </mxCell>
        <mxCell id="RJbc93FVTb6hfc-xO98S-5" value="$$\frac{n}{4}$$" style="rounded=0;whiteSpace=wrap;html=1;fontSize=17;" parent="1" vertex="1">
          <mxGeometry x="190" y="310" width="80" height="50" as="geometry" />
        </mxCell>
        <mxCell id="RJbc93FVTb6hfc-xO98S-6" value="$$\frac{n}{4}$$" style="rounded=0;whiteSpace=wrap;html=1;fontSize=17;" parent="1" vertex="1">
          <mxGeometry x="290" y="310" width="80" height="50" as="geometry" />
        </mxCell>
        <mxCell id="RJbc93FVTb6hfc-xO98S-7" value="$$\frac{n}{4}$$" style="rounded=0;whiteSpace=wrap;html=1;fontSize=17;" parent="1" vertex="1">
          <mxGeometry x="390" y="310" width="80" height="50" as="geometry" />
        </mxCell>
        <mxCell id="RJbc93FVTb6hfc-xO98S-8" value="... $$\lg n$$" style="text;html=1;strokeColor=none;fillColor=none;align=center;verticalAlign=middle;whiteSpace=wrap;rounded=0;fontSize=17;" parent="1" vertex="1">
          <mxGeometry x="190" y="400" width="180" height="30" as="geometry" />
        </mxCell>
        <mxCell id="RJbc93FVTb6hfc-xO98S-9" value="1" style="rounded=0;whiteSpace=wrap;html=1;fontSize=17;" parent="1" vertex="1">
          <mxGeometry x="80" y="450" width="30" height="30" as="geometry" />
        </mxCell>
        <mxCell id="RJbc93FVTb6hfc-xO98S-10" value="1" style="rounded=0;whiteSpace=wrap;html=1;fontSize=17;" parent="1" vertex="1">
          <mxGeometry x="120" y="450" width="30" height="30" as="geometry" />
        </mxCell>
        <mxCell id="RJbc93FVTb6hfc-xO98S-11" value="1" style="rounded=0;whiteSpace=wrap;html=1;fontSize=17;" parent="1" vertex="1">
          <mxGeometry x="450" y="450" width="30" height="30" as="geometry" />
        </mxCell>
        <mxCell id="RJbc93FVTb6hfc-xO98S-12" value="... `n` ..." style="text;html=1;strokeColor=none;fillColor=none;align=center;verticalAlign=middle;whiteSpace=wrap;rounded=0;fontSize=17;" parent="1" vertex="1">
          <mxGeometry x="190" y="450" width="180" height="30" as="geometry" />
        </mxCell>
      </root>
    </mxGraphModel>
  </diagram>
  <diagram id="G_Yv6sW6p-Ds1MUS1NGs" name="unbalanced">
    <mxGraphModel dx="1159" dy="784" grid="1" gridSize="10" guides="1" tooltips="1" connect="1" arrows="1" fold="1" page="1" pageScale="1" pageWidth="850" pageHeight="1100" math="1" shadow="0">
      <root>
        <mxCell id="0" />
        <mxCell id="1" parent="0" />
        <mxCell id="xGQz6br2yI1HHC_592V2-4" style="edgeStyle=none;rounded=0;orthogonalLoop=1;jettySize=auto;html=1;exitX=0.5;exitY=1;exitDx=0;exitDy=0;entryX=0.5;entryY=0;entryDx=0;entryDy=0;fontSize=17;" edge="1" parent="1" source="xGQz6br2yI1HHC_592V2-1" target="xGQz6br2yI1HHC_592V2-2">
          <mxGeometry relative="1" as="geometry" />
        </mxCell>
        <mxCell id="xGQz6br2yI1HHC_592V2-5" style="edgeStyle=none;rounded=0;orthogonalLoop=1;jettySize=auto;html=1;exitX=0.5;exitY=1;exitDx=0;exitDy=0;entryX=0.5;entryY=0;entryDx=0;entryDy=0;fontSize=17;" edge="1" parent="1" source="xGQz6br2yI1HHC_592V2-1" target="xGQz6br2yI1HHC_592V2-3">
          <mxGeometry relative="1" as="geometry" />
        </mxCell>
        <mxCell id="xGQz6br2yI1HHC_592V2-1" value="`x[1], x[2], ..., x[n]`" style="rounded=0;whiteSpace=wrap;html=1;fontSize=17;" vertex="1" parent="1">
          <mxGeometry x="70" y="40" width="200" height="40" as="geometry" />
        </mxCell>
        <mxCell id="xGQz6br2yI1HHC_592V2-2" value="[ ]" style="rounded=0;whiteSpace=wrap;html=1;fontSize=17;" vertex="1" parent="1">
          <mxGeometry x="60" y="110" width="40" height="40" as="geometry" />
        </mxCell>
        <mxCell id="xGQz6br2yI1HHC_592V2-8" style="edgeStyle=none;rounded=0;orthogonalLoop=1;jettySize=auto;html=1;exitX=0.5;exitY=1;exitDx=0;exitDy=0;entryX=0.5;entryY=0;entryDx=0;entryDy=0;fontSize=17;" edge="1" parent="1" source="xGQz6br2yI1HHC_592V2-3" target="xGQz6br2yI1HHC_592V2-7">
          <mxGeometry relative="1" as="geometry" />
        </mxCell>
        <mxCell id="xGQz6br2yI1HHC_592V2-9" style="edgeStyle=none;rounded=0;orthogonalLoop=1;jettySize=auto;html=1;exitX=0.5;exitY=1;exitDx=0;exitDy=0;entryX=0.5;entryY=0;entryDx=0;entryDy=0;fontSize=17;" edge="1" parent="1" source="xGQz6br2yI1HHC_592V2-3" target="xGQz6br2yI1HHC_592V2-6">
          <mxGeometry relative="1" as="geometry" />
        </mxCell>
        <mxCell id="xGQz6br2yI1HHC_592V2-3" value="`x[2], x[3], ..., x[n]`" style="rounded=0;whiteSpace=wrap;html=1;fontSize=17;" vertex="1" parent="1">
          <mxGeometry x="150" y="110" width="200" height="40" as="geometry" />
        </mxCell>
        <mxCell id="xGQz6br2yI1HHC_592V2-6" value="[ ]" style="rounded=0;whiteSpace=wrap;html=1;fontSize=17;" vertex="1" parent="1">
          <mxGeometry x="140" y="180" width="40" height="40" as="geometry" />
        </mxCell>
        <mxCell id="xGQz6br2yI1HHC_592V2-12" style="edgeStyle=none;rounded=0;orthogonalLoop=1;jettySize=auto;html=1;exitX=0.5;exitY=1;exitDx=0;exitDy=0;entryX=0.5;entryY=0;entryDx=0;entryDy=0;fontSize=17;" edge="1" parent="1" source="xGQz6br2yI1HHC_592V2-7" target="xGQz6br2yI1HHC_592V2-10">
          <mxGeometry relative="1" as="geometry" />
        </mxCell>
        <mxCell id="xGQz6br2yI1HHC_592V2-13" style="edgeStyle=none;rounded=0;orthogonalLoop=1;jettySize=auto;html=1;exitX=0.5;exitY=1;exitDx=0;exitDy=0;entryX=0.5;entryY=0;entryDx=0;entryDy=0;fontSize=17;" edge="1" parent="1" source="xGQz6br2yI1HHC_592V2-7" target="xGQz6br2yI1HHC_592V2-11">
          <mxGeometry relative="1" as="geometry" />
        </mxCell>
        <mxCell id="xGQz6br2yI1HHC_592V2-7" value="`x[3], x[4], ..., x[n]`" style="rounded=0;whiteSpace=wrap;html=1;fontSize=17;" vertex="1" parent="1">
          <mxGeometry x="225" y="180" width="200" height="40" as="geometry" />
        </mxCell>
        <mxCell id="xGQz6br2yI1HHC_592V2-10" value="[ ]" style="rounded=0;whiteSpace=wrap;html=1;fontSize=17;" vertex="1" parent="1">
          <mxGeometry x="210" y="260" width="40" height="40" as="geometry" />
        </mxCell>
        <mxCell id="xGQz6br2yI1HHC_592V2-16" style="edgeStyle=none;rounded=0;orthogonalLoop=1;jettySize=auto;html=1;exitX=0.5;exitY=1;exitDx=0;exitDy=0;entryX=0.5;entryY=0;entryDx=0;entryDy=0;fontSize=17;" edge="1" parent="1" source="xGQz6br2yI1HHC_592V2-11" target="xGQz6br2yI1HHC_592V2-15">
          <mxGeometry relative="1" as="geometry" />
        </mxCell>
        <mxCell id="xGQz6br2yI1HHC_592V2-11" value="..." style="rounded=0;whiteSpace=wrap;html=1;fontSize=17;" vertex="1" parent="1">
          <mxGeometry x="290" y="260" width="200" height="40" as="geometry" />
        </mxCell>
        <mxCell id="xGQz6br2yI1HHC_592V2-14" value="[ ]" style="rounded=0;whiteSpace=wrap;html=1;fontSize=17;" vertex="1" parent="1">
          <mxGeometry x="370" y="340" width="40" height="40" as="geometry" />
        </mxCell>
        <mxCell id="xGQz6br2yI1HHC_592V2-15" value="`x[n]`" style="rounded=0;whiteSpace=wrap;html=1;fontSize=17;" vertex="1" parent="1">
          <mxGeometry x="420" y="340" width="40" height="40" as="geometry" />
        </mxCell>
      </root>
    </mxGraphModel>
  </diagram>
  <diagram name="unbalanced 2" id="k9AILCkRZWfNuxviPO8c">
    <mxGraphModel dx="1159" dy="784" grid="1" gridSize="10" guides="1" tooltips="1" connect="1" arrows="1" fold="1" page="1" pageScale="1" pageWidth="850" pageHeight="1100" math="1" shadow="0">
      <root>
        <mxCell id="y5cbaYWUNGacxm1OFamQ-0" />
        <mxCell id="y5cbaYWUNGacxm1OFamQ-1" parent="y5cbaYWUNGacxm1OFamQ-0" />
        <mxCell id="y5cbaYWUNGacxm1OFamQ-2" style="edgeStyle=none;rounded=0;orthogonalLoop=1;jettySize=auto;html=1;exitX=0.5;exitY=1;exitDx=0;exitDy=0;entryX=0.5;entryY=0;entryDx=0;entryDy=0;fontSize=17;" edge="1" parent="y5cbaYWUNGacxm1OFamQ-1" source="y5cbaYWUNGacxm1OFamQ-4" target="y5cbaYWUNGacxm1OFamQ-5">
          <mxGeometry relative="1" as="geometry" />
        </mxCell>
        <mxCell id="y5cbaYWUNGacxm1OFamQ-3" style="edgeStyle=none;rounded=0;orthogonalLoop=1;jettySize=auto;html=1;exitX=0.5;exitY=1;exitDx=0;exitDy=0;entryX=0.5;entryY=0;entryDx=0;entryDy=0;fontSize=17;" edge="1" parent="y5cbaYWUNGacxm1OFamQ-1" source="y5cbaYWUNGacxm1OFamQ-4" target="y5cbaYWUNGacxm1OFamQ-8">
          <mxGeometry relative="1" as="geometry" />
        </mxCell>
        <mxCell id="y5cbaYWUNGacxm1OFamQ-4" value="`y[1], y[2], ..., y[n]`" style="rounded=0;whiteSpace=wrap;html=1;fontSize=17;" vertex="1" parent="y5cbaYWUNGacxm1OFamQ-1">
          <mxGeometry x="170" y="40" width="200" height="40" as="geometry" />
        </mxCell>
        <mxCell id="y5cbaYWUNGacxm1OFamQ-5" value="[ ]" style="rounded=0;whiteSpace=wrap;html=1;fontSize=17;" vertex="1" parent="y5cbaYWUNGacxm1OFamQ-1">
          <mxGeometry x="330" y="120" width="40" height="40" as="geometry" />
        </mxCell>
        <mxCell id="y5cbaYWUNGacxm1OFamQ-6" style="edgeStyle=none;rounded=0;orthogonalLoop=1;jettySize=auto;html=1;exitX=0.5;exitY=1;exitDx=0;exitDy=0;entryX=0.5;entryY=0;entryDx=0;entryDy=0;fontSize=17;" edge="1" parent="y5cbaYWUNGacxm1OFamQ-1" source="y5cbaYWUNGacxm1OFamQ-8" target="y5cbaYWUNGacxm1OFamQ-12">
          <mxGeometry relative="1" as="geometry" />
        </mxCell>
        <mxCell id="y5cbaYWUNGacxm1OFamQ-7" style="edgeStyle=none;rounded=0;orthogonalLoop=1;jettySize=auto;html=1;exitX=0.5;exitY=1;exitDx=0;exitDy=0;entryX=0.5;entryY=0;entryDx=0;entryDy=0;fontSize=17;" edge="1" parent="y5cbaYWUNGacxm1OFamQ-1" source="y5cbaYWUNGacxm1OFamQ-8" target="y5cbaYWUNGacxm1OFamQ-9">
          <mxGeometry relative="1" as="geometry" />
        </mxCell>
        <mxCell id="y5cbaYWUNGacxm1OFamQ-8" value="`y[2], y[3], ..., y[n]`" style="rounded=0;whiteSpace=wrap;html=1;fontSize=17;" vertex="1" parent="y5cbaYWUNGacxm1OFamQ-1">
          <mxGeometry x="110" y="120" width="200" height="40" as="geometry" />
        </mxCell>
        <mxCell id="y5cbaYWUNGacxm1OFamQ-9" value="[ ]" style="rounded=0;whiteSpace=wrap;html=1;fontSize=17;" vertex="1" parent="y5cbaYWUNGacxm1OFamQ-1">
          <mxGeometry x="280" y="200" width="40" height="40" as="geometry" />
        </mxCell>
        <mxCell id="y5cbaYWUNGacxm1OFamQ-10" style="edgeStyle=none;rounded=0;orthogonalLoop=1;jettySize=auto;html=1;exitX=0.5;exitY=1;exitDx=0;exitDy=0;entryX=0.5;entryY=0;entryDx=0;entryDy=0;fontSize=17;" edge="1" parent="y5cbaYWUNGacxm1OFamQ-1" source="y5cbaYWUNGacxm1OFamQ-12" target="y5cbaYWUNGacxm1OFamQ-13">
          <mxGeometry relative="1" as="geometry" />
        </mxCell>
        <mxCell id="y5cbaYWUNGacxm1OFamQ-11" style="edgeStyle=none;rounded=0;orthogonalLoop=1;jettySize=auto;html=1;exitX=0.5;exitY=1;exitDx=0;exitDy=0;entryX=0.5;entryY=0;entryDx=0;entryDy=0;fontSize=17;" edge="1" parent="y5cbaYWUNGacxm1OFamQ-1" source="y5cbaYWUNGacxm1OFamQ-12" target="y5cbaYWUNGacxm1OFamQ-15">
          <mxGeometry relative="1" as="geometry" />
        </mxCell>
        <mxCell id="y5cbaYWUNGacxm1OFamQ-12" value="`y[3], y[4], ..., y[n]`" style="rounded=0;whiteSpace=wrap;html=1;fontSize=17;" vertex="1" parent="y5cbaYWUNGacxm1OFamQ-1">
          <mxGeometry x="60" y="200" width="200" height="40" as="geometry" />
        </mxCell>
        <mxCell id="y5cbaYWUNGacxm1OFamQ-13" value="[ ]" style="rounded=0;whiteSpace=wrap;html=1;fontSize=17;" vertex="1" parent="y5cbaYWUNGacxm1OFamQ-1">
          <mxGeometry x="200" y="280" width="40" height="40" as="geometry" />
        </mxCell>
        <mxCell id="y5cbaYWUNGacxm1OFamQ-14" style="edgeStyle=none;rounded=0;orthogonalLoop=1;jettySize=auto;html=1;exitX=0.5;exitY=1;exitDx=0;exitDy=0;entryX=0.5;entryY=0;entryDx=0;entryDy=0;fontSize=17;" edge="1" parent="y5cbaYWUNGacxm1OFamQ-1" source="y5cbaYWUNGacxm1OFamQ-15" target="y5cbaYWUNGacxm1OFamQ-17">
          <mxGeometry relative="1" as="geometry" />
        </mxCell>
        <mxCell id="y5cbaYWUNGacxm1OFamQ-15" value="..." style="rounded=0;whiteSpace=wrap;html=1;fontSize=17;" vertex="1" parent="y5cbaYWUNGacxm1OFamQ-1">
          <mxGeometry x="40" y="280" width="140" height="40" as="geometry" />
        </mxCell>
        <mxCell id="y5cbaYWUNGacxm1OFamQ-16" value="[ ]" style="rounded=0;whiteSpace=wrap;html=1;fontSize=17;" vertex="1" parent="y5cbaYWUNGacxm1OFamQ-1">
          <mxGeometry x="100" y="360" width="40" height="40" as="geometry" />
        </mxCell>
        <mxCell id="y5cbaYWUNGacxm1OFamQ-17" value="`y[n]`" style="rounded=0;whiteSpace=wrap;html=1;fontSize=17;" vertex="1" parent="y5cbaYWUNGacxm1OFamQ-1">
          <mxGeometry x="40" y="360" width="40" height="40" as="geometry" />
        </mxCell>
      </root>
    </mxGraphModel>
  </diagram>
  <diagram name="unbalanced 3" id="-D5CCJt12ZuneXdB_Y37">
    <mxGraphModel dx="1159" dy="784" grid="1" gridSize="10" guides="1" tooltips="1" connect="1" arrows="1" fold="1" page="1" pageScale="1" pageWidth="850" pageHeight="1100" math="1" shadow="0">
      <root>
        <mxCell id="E9TNl5N8yDN8Aln-JLyT-0" />
        <mxCell id="E9TNl5N8yDN8Aln-JLyT-1" parent="E9TNl5N8yDN8Aln-JLyT-0" />
        <mxCell id="Nh4kr9oBHDrQHZBYIdjs-16" style="edgeStyle=none;rounded=0;orthogonalLoop=1;jettySize=auto;html=1;exitX=0.5;exitY=1;exitDx=0;exitDy=0;entryX=0.5;entryY=0;entryDx=0;entryDy=0;fontSize=17;" edge="1" parent="E9TNl5N8yDN8Aln-JLyT-1" source="E9TNl5N8yDN8Aln-JLyT-4" target="Nh4kr9oBHDrQHZBYIdjs-2">
          <mxGeometry relative="1" as="geometry" />
        </mxCell>
        <mxCell id="Nh4kr9oBHDrQHZBYIdjs-17" style="edgeStyle=none;rounded=0;orthogonalLoop=1;jettySize=auto;html=1;exitX=0.5;exitY=1;exitDx=0;exitDy=0;entryX=0.5;entryY=0;entryDx=0;entryDy=0;fontSize=17;" edge="1" parent="E9TNl5N8yDN8Aln-JLyT-1" source="E9TNl5N8yDN8Aln-JLyT-4" target="RDemQC91oTQGlQb4pAiw-2">
          <mxGeometry relative="1" as="geometry" />
        </mxCell>
        <mxCell id="E9TNl5N8yDN8Aln-JLyT-4" value="`x[m], x[m-1], ..., x[1], x[m+1], x[m+2], ..., x[n]`" style="rounded=0;whiteSpace=wrap;html=1;fontSize=17;" vertex="1" parent="E9TNl5N8yDN8Aln-JLyT-1">
          <mxGeometry x="220" y="50" width="470" height="40" as="geometry" />
        </mxCell>
        <mxCell id="RDemQC91oTQGlQb4pAiw-0" style="edgeStyle=none;rounded=0;orthogonalLoop=1;jettySize=auto;html=1;exitX=0.5;exitY=1;exitDx=0;exitDy=0;entryX=0.5;entryY=0;entryDx=0;entryDy=0;fontSize=17;" edge="1" parent="E9TNl5N8yDN8Aln-JLyT-1" source="RDemQC91oTQGlQb4pAiw-2" target="RDemQC91oTQGlQb4pAiw-3">
          <mxGeometry relative="1" as="geometry" />
        </mxCell>
        <mxCell id="RDemQC91oTQGlQb4pAiw-1" style="edgeStyle=none;rounded=0;orthogonalLoop=1;jettySize=auto;html=1;exitX=0.5;exitY=1;exitDx=0;exitDy=0;entryX=0.5;entryY=0;entryDx=0;entryDy=0;fontSize=17;" edge="1" parent="E9TNl5N8yDN8Aln-JLyT-1" source="RDemQC91oTQGlQb4pAiw-2" target="RDemQC91oTQGlQb4pAiw-6">
          <mxGeometry relative="1" as="geometry" />
        </mxCell>
        <mxCell id="RDemQC91oTQGlQb4pAiw-2" value="`x[m+1], x[m+2], ..., x[n]`" style="rounded=0;whiteSpace=wrap;html=1;fontSize=17;" vertex="1" parent="E9TNl5N8yDN8Aln-JLyT-1">
          <mxGeometry x="480" y="120" width="240" height="40" as="geometry" />
        </mxCell>
        <mxCell id="RDemQC91oTQGlQb4pAiw-3" value="[ ]" style="rounded=0;whiteSpace=wrap;html=1;fontSize=17;" vertex="1" parent="E9TNl5N8yDN8Aln-JLyT-1">
          <mxGeometry x="480" y="200" width="40" height="40" as="geometry" />
        </mxCell>
        <mxCell id="RDemQC91oTQGlQb4pAiw-6" value="`x[m+2], x[m+3], ..., x[n]`" style="rounded=0;whiteSpace=wrap;html=1;fontSize=17;" vertex="1" parent="E9TNl5N8yDN8Aln-JLyT-1">
          <mxGeometry x="560" y="200" width="260" height="40" as="geometry" />
        </mxCell>
        <mxCell id="RDemQC91oTQGlQb4pAiw-8" style="edgeStyle=none;rounded=0;orthogonalLoop=1;jettySize=auto;html=1;exitX=0.477;exitY=1;exitDx=0;exitDy=0;entryX=0.5;entryY=0;entryDx=0;entryDy=0;fontSize=17;exitPerimeter=0;" edge="1" parent="E9TNl5N8yDN8Aln-JLyT-1" source="RDemQC91oTQGlQb4pAiw-6" target="RDemQC91oTQGlQb4pAiw-11">
          <mxGeometry relative="1" as="geometry">
            <mxPoint x="690" y="250" as="sourcePoint" />
          </mxGeometry>
        </mxCell>
        <mxCell id="RDemQC91oTQGlQb4pAiw-9" style="edgeStyle=none;rounded=0;orthogonalLoop=1;jettySize=auto;html=1;exitX=0.5;exitY=1;exitDx=0;exitDy=0;entryX=0.5;entryY=0;entryDx=0;entryDy=0;fontSize=17;" edge="1" parent="E9TNl5N8yDN8Aln-JLyT-1" source="RDemQC91oTQGlQb4pAiw-6" target="RDemQC91oTQGlQb4pAiw-13">
          <mxGeometry relative="1" as="geometry">
            <mxPoint x="690" y="250" as="sourcePoint" />
          </mxGeometry>
        </mxCell>
        <mxCell id="RDemQC91oTQGlQb4pAiw-11" value="[ ]" style="rounded=0;whiteSpace=wrap;html=1;fontSize=17;" vertex="1" parent="E9TNl5N8yDN8Aln-JLyT-1">
          <mxGeometry x="600" y="280" width="40" height="40" as="geometry" />
        </mxCell>
        <mxCell id="RDemQC91oTQGlQb4pAiw-12" style="edgeStyle=none;rounded=0;orthogonalLoop=1;jettySize=auto;html=1;exitX=0.5;exitY=1;exitDx=0;exitDy=0;entryX=0.5;entryY=0;entryDx=0;entryDy=0;fontSize=17;" edge="1" parent="E9TNl5N8yDN8Aln-JLyT-1" source="RDemQC91oTQGlQb4pAiw-13" target="RDemQC91oTQGlQb4pAiw-15">
          <mxGeometry relative="1" as="geometry" />
        </mxCell>
        <mxCell id="RDemQC91oTQGlQb4pAiw-13" value="..." style="rounded=0;whiteSpace=wrap;html=1;fontSize=17;" vertex="1" parent="E9TNl5N8yDN8Aln-JLyT-1">
          <mxGeometry x="680" y="280" width="140" height="40" as="geometry" />
        </mxCell>
        <mxCell id="RDemQC91oTQGlQb4pAiw-14" value="[ ]" style="rounded=0;whiteSpace=wrap;html=1;fontSize=17;" vertex="1" parent="E9TNl5N8yDN8Aln-JLyT-1">
          <mxGeometry x="680" y="360" width="40" height="40" as="geometry" />
        </mxCell>
        <mxCell id="RDemQC91oTQGlQb4pAiw-15" value="`x[n]`" style="rounded=0;whiteSpace=wrap;html=1;fontSize=17;" vertex="1" parent="E9TNl5N8yDN8Aln-JLyT-1">
          <mxGeometry x="760" y="360" width="40" height="40" as="geometry" />
        </mxCell>
        <mxCell id="Nh4kr9oBHDrQHZBYIdjs-0" style="edgeStyle=none;rounded=0;orthogonalLoop=1;jettySize=auto;html=1;exitX=0.5;exitY=1;exitDx=0;exitDy=0;entryX=0.5;entryY=0;entryDx=0;entryDy=0;fontSize=17;" edge="1" parent="E9TNl5N8yDN8Aln-JLyT-1" source="Nh4kr9oBHDrQHZBYIdjs-2" target="Nh4kr9oBHDrQHZBYIdjs-3">
          <mxGeometry relative="1" as="geometry" />
        </mxCell>
        <mxCell id="Nh4kr9oBHDrQHZBYIdjs-1" style="edgeStyle=none;rounded=0;orthogonalLoop=1;jettySize=auto;html=1;exitX=0.5;exitY=1;exitDx=0;exitDy=0;entryX=0.5;entryY=0;entryDx=0;entryDy=0;fontSize=17;" edge="1" parent="E9TNl5N8yDN8Aln-JLyT-1" source="Nh4kr9oBHDrQHZBYIdjs-2" target="Nh4kr9oBHDrQHZBYIdjs-6">
          <mxGeometry relative="1" as="geometry" />
        </mxCell>
        <mxCell id="Nh4kr9oBHDrQHZBYIdjs-2" value="`x[m-1], x[m-2], ..., x[1]`" style="rounded=0;whiteSpace=wrap;html=1;fontSize=17;" vertex="1" parent="E9TNl5N8yDN8Aln-JLyT-1">
          <mxGeometry x="200" y="120" width="240" height="40" as="geometry" />
        </mxCell>
        <mxCell id="Nh4kr9oBHDrQHZBYIdjs-3" value="[ ]" style="rounded=0;whiteSpace=wrap;html=1;fontSize=17;" vertex="1" parent="E9TNl5N8yDN8Aln-JLyT-1">
          <mxGeometry x="400" y="200" width="40" height="40" as="geometry" />
        </mxCell>
        <mxCell id="Nh4kr9oBHDrQHZBYIdjs-6" value="`x[m-2], x[m-3], ..., x[1]`" style="rounded=0;whiteSpace=wrap;html=1;fontSize=17;" vertex="1" parent="E9TNl5N8yDN8Aln-JLyT-1">
          <mxGeometry x="120" y="200" width="240" height="40" as="geometry" />
        </mxCell>
        <mxCell id="Nh4kr9oBHDrQHZBYIdjs-8" style="edgeStyle=none;rounded=0;orthogonalLoop=1;jettySize=auto;html=1;exitX=0.5;exitY=1;exitDx=0;exitDy=0;entryX=0.5;entryY=0;entryDx=0;entryDy=0;fontSize=17;" edge="1" parent="E9TNl5N8yDN8Aln-JLyT-1" source="Nh4kr9oBHDrQHZBYIdjs-6" target="Nh4kr9oBHDrQHZBYIdjs-11">
          <mxGeometry relative="1" as="geometry">
            <mxPoint x="175" y="270" as="sourcePoint" />
          </mxGeometry>
        </mxCell>
        <mxCell id="Nh4kr9oBHDrQHZBYIdjs-9" style="edgeStyle=none;rounded=0;orthogonalLoop=1;jettySize=auto;html=1;exitX=0.5;exitY=1;exitDx=0;exitDy=0;entryX=0.5;entryY=0;entryDx=0;entryDy=0;fontSize=17;" edge="1" parent="E9TNl5N8yDN8Aln-JLyT-1" source="Nh4kr9oBHDrQHZBYIdjs-6" target="Nh4kr9oBHDrQHZBYIdjs-13">
          <mxGeometry relative="1" as="geometry">
            <mxPoint x="175" y="270" as="sourcePoint" />
          </mxGeometry>
        </mxCell>
        <mxCell id="Nh4kr9oBHDrQHZBYIdjs-11" value="[ ]" style="rounded=0;whiteSpace=wrap;html=1;fontSize=17;" vertex="1" parent="E9TNl5N8yDN8Aln-JLyT-1">
          <mxGeometry x="300" y="280" width="40" height="40" as="geometry" />
        </mxCell>
        <mxCell id="Nh4kr9oBHDrQHZBYIdjs-12" style="edgeStyle=none;rounded=0;orthogonalLoop=1;jettySize=auto;html=1;exitX=0.5;exitY=1;exitDx=0;exitDy=0;entryX=0.5;entryY=0;entryDx=0;entryDy=0;fontSize=17;" edge="1" parent="E9TNl5N8yDN8Aln-JLyT-1" source="Nh4kr9oBHDrQHZBYIdjs-13" target="Nh4kr9oBHDrQHZBYIdjs-15">
          <mxGeometry relative="1" as="geometry" />
        </mxCell>
        <mxCell id="Nh4kr9oBHDrQHZBYIdjs-13" value="..." style="rounded=0;whiteSpace=wrap;html=1;fontSize=17;" vertex="1" parent="E9TNl5N8yDN8Aln-JLyT-1">
          <mxGeometry x="120" y="280" width="140" height="40" as="geometry" />
        </mxCell>
        <mxCell id="Nh4kr9oBHDrQHZBYIdjs-14" value="[ ]" style="rounded=0;whiteSpace=wrap;html=1;fontSize=17;" vertex="1" parent="E9TNl5N8yDN8Aln-JLyT-1">
          <mxGeometry x="220" y="360" width="40" height="40" as="geometry" />
        </mxCell>
        <mxCell id="Nh4kr9oBHDrQHZBYIdjs-15" value="`x[1]`" style="rounded=0;whiteSpace=wrap;html=1;fontSize=17;" vertex="1" parent="E9TNl5N8yDN8Aln-JLyT-1">
          <mxGeometry x="140" y="360" width="40" height="40" as="geometry" />
        </mxCell>
      </root>
    </mxGraphModel>
  </diagram>
  <diagram name="unbalanced zig zag" id="n_ksyd5tW3eurUGJaRbs">
    <mxGraphModel dx="1159" dy="784" grid="1" gridSize="10" guides="1" tooltips="1" connect="1" arrows="1" fold="1" page="1" pageScale="1" pageWidth="850" pageHeight="1100" math="1" shadow="0">
      <root>
        <mxCell id="V5m_YXyf-nwAcqaRBhlr-0" />
        <mxCell id="V5m_YXyf-nwAcqaRBhlr-1" parent="V5m_YXyf-nwAcqaRBhlr-0" />
        <mxCell id="V5m_YXyf-nwAcqaRBhlr-3" style="edgeStyle=none;rounded=0;orthogonalLoop=1;jettySize=auto;html=1;exitX=0.5;exitY=1;exitDx=0;exitDy=0;entryX=0.5;entryY=0;entryDx=0;entryDy=0;fontSize=17;" edge="1" parent="V5m_YXyf-nwAcqaRBhlr-1" source="V5m_YXyf-nwAcqaRBhlr-4" target="V5m_YXyf-nwAcqaRBhlr-7">
          <mxGeometry relative="1" as="geometry" />
        </mxCell>
        <mxCell id="a2tDNXpt0L5gLJA3vfkL-0" style="edgeStyle=none;rounded=0;orthogonalLoop=1;jettySize=auto;html=1;exitX=0.5;exitY=1;exitDx=0;exitDy=0;entryX=0.5;entryY=0;entryDx=0;entryDy=0;fontSize=17;" edge="1" parent="V5m_YXyf-nwAcqaRBhlr-1" source="V5m_YXyf-nwAcqaRBhlr-4" target="V5m_YXyf-nwAcqaRBhlr-15">
          <mxGeometry relative="1" as="geometry" />
        </mxCell>
        <mxCell id="V5m_YXyf-nwAcqaRBhlr-4" value="`x[n], x[1], x[n-1], x[2], ...`" style="rounded=0;whiteSpace=wrap;html=1;fontSize=17;" vertex="1" parent="V5m_YXyf-nwAcqaRBhlr-1">
          <mxGeometry x="360" y="50" width="240" height="40" as="geometry" />
        </mxCell>
        <mxCell id="V5m_YXyf-nwAcqaRBhlr-5" style="edgeStyle=none;rounded=0;orthogonalLoop=1;jettySize=auto;html=1;exitX=0.5;exitY=1;exitDx=0;exitDy=0;entryX=0.5;entryY=0;entryDx=0;entryDy=0;fontSize=17;" edge="1" parent="V5m_YXyf-nwAcqaRBhlr-1" source="V5m_YXyf-nwAcqaRBhlr-7" target="V5m_YXyf-nwAcqaRBhlr-8">
          <mxGeometry relative="1" as="geometry" />
        </mxCell>
        <mxCell id="V5m_YXyf-nwAcqaRBhlr-6" style="edgeStyle=none;rounded=0;orthogonalLoop=1;jettySize=auto;html=1;exitX=0.5;exitY=1;exitDx=0;exitDy=0;entryX=0.5;entryY=0;entryDx=0;entryDy=0;fontSize=17;" edge="1" parent="V5m_YXyf-nwAcqaRBhlr-1" source="V5m_YXyf-nwAcqaRBhlr-7" target="V5m_YXyf-nwAcqaRBhlr-9">
          <mxGeometry relative="1" as="geometry" />
        </mxCell>
        <mxCell id="V5m_YXyf-nwAcqaRBhlr-7" value="`x[1], x[n-1], x[2], x[n-2], x[3], ...`" style="rounded=0;whiteSpace=wrap;html=1;fontSize=17;" vertex="1" parent="V5m_YXyf-nwAcqaRBhlr-1">
          <mxGeometry x="200" y="120" width="320" height="40" as="geometry" />
        </mxCell>
        <mxCell id="V5m_YXyf-nwAcqaRBhlr-8" value="[ ]" style="rounded=0;whiteSpace=wrap;html=1;fontSize=17;" vertex="1" parent="V5m_YXyf-nwAcqaRBhlr-1">
          <mxGeometry x="200" y="200" width="40" height="40" as="geometry" />
        </mxCell>
        <mxCell id="a2tDNXpt0L5gLJA3vfkL-1" style="edgeStyle=none;rounded=0;orthogonalLoop=1;jettySize=auto;html=1;exitX=0.5;exitY=1;exitDx=0;exitDy=0;entryX=0.5;entryY=0;entryDx=0;entryDy=0;fontSize=17;" edge="1" parent="V5m_YXyf-nwAcqaRBhlr-1" source="V5m_YXyf-nwAcqaRBhlr-9" target="V5m_YXyf-nwAcqaRBhlr-19">
          <mxGeometry relative="1" as="geometry" />
        </mxCell>
        <mxCell id="a2tDNXpt0L5gLJA3vfkL-2" style="edgeStyle=none;rounded=0;orthogonalLoop=1;jettySize=auto;html=1;exitX=0.5;exitY=1;exitDx=0;exitDy=0;entryX=0.5;entryY=0;entryDx=0;entryDy=0;fontSize=17;" edge="1" parent="V5m_YXyf-nwAcqaRBhlr-1" source="V5m_YXyf-nwAcqaRBhlr-9" target="V5m_YXyf-nwAcqaRBhlr-12">
          <mxGeometry relative="1" as="geometry" />
        </mxCell>
        <mxCell id="V5m_YXyf-nwAcqaRBhlr-9" value="`x[n-1], x[2], x[n-2], x[3], ...`" style="rounded=0;whiteSpace=wrap;html=1;fontSize=17;" vertex="1" parent="V5m_YXyf-nwAcqaRBhlr-1">
          <mxGeometry x="280" y="200" width="280" height="40" as="geometry" />
        </mxCell>
        <mxCell id="V5m_YXyf-nwAcqaRBhlr-12" value="[ ]" style="rounded=0;whiteSpace=wrap;html=1;fontSize=17;" vertex="1" parent="V5m_YXyf-nwAcqaRBhlr-1">
          <mxGeometry x="490" y="280" width="40" height="40" as="geometry" />
        </mxCell>
        <mxCell id="V5m_YXyf-nwAcqaRBhlr-15" value="[ ]" style="rounded=0;whiteSpace=wrap;html=1;fontSize=17;" vertex="1" parent="V5m_YXyf-nwAcqaRBhlr-1">
          <mxGeometry x="560" y="120" width="40" height="40" as="geometry" />
        </mxCell>
        <mxCell id="a2tDNXpt0L5gLJA3vfkL-3" style="edgeStyle=none;rounded=0;orthogonalLoop=1;jettySize=auto;html=1;exitX=0.5;exitY=1;exitDx=0;exitDy=0;entryX=0.5;entryY=0;entryDx=0;entryDy=0;fontSize=17;" edge="1" parent="V5m_YXyf-nwAcqaRBhlr-1" source="V5m_YXyf-nwAcqaRBhlr-19" target="V5m_YXyf-nwAcqaRBhlr-21">
          <mxGeometry relative="1" as="geometry" />
        </mxCell>
        <mxCell id="a2tDNXpt0L5gLJA3vfkL-4" style="edgeStyle=none;rounded=0;orthogonalLoop=1;jettySize=auto;html=1;exitX=0.5;exitY=1;exitDx=0;exitDy=0;entryX=0.5;entryY=0;entryDx=0;entryDy=0;fontSize=17;" edge="1" parent="V5m_YXyf-nwAcqaRBhlr-1" source="V5m_YXyf-nwAcqaRBhlr-19" target="V5m_YXyf-nwAcqaRBhlr-20">
          <mxGeometry relative="1" as="geometry" />
        </mxCell>
        <mxCell id="V5m_YXyf-nwAcqaRBhlr-19" value="`x[2], x[n-2], x[3], x[n-3], ...`" style="rounded=0;whiteSpace=wrap;html=1;fontSize=17;" vertex="1" parent="V5m_YXyf-nwAcqaRBhlr-1">
          <mxGeometry x="160" y="280" width="290" height="40" as="geometry" />
        </mxCell>
        <mxCell id="V5m_YXyf-nwAcqaRBhlr-20" value="[ ]" style="rounded=0;whiteSpace=wrap;html=1;fontSize=17;" vertex="1" parent="V5m_YXyf-nwAcqaRBhlr-1">
          <mxGeometry x="200" y="360" width="40" height="40" as="geometry" />
        </mxCell>
        <mxCell id="a2tDNXpt0L5gLJA3vfkL-5" style="edgeStyle=none;rounded=0;orthogonalLoop=1;jettySize=auto;html=1;exitX=0.5;exitY=1;exitDx=0;exitDy=0;entryX=0.5;entryY=0;entryDx=0;entryDy=0;fontSize=17;" edge="1" parent="V5m_YXyf-nwAcqaRBhlr-1" source="V5m_YXyf-nwAcqaRBhlr-21" target="V5m_YXyf-nwAcqaRBhlr-26">
          <mxGeometry relative="1" as="geometry" />
        </mxCell>
        <mxCell id="a2tDNXpt0L5gLJA3vfkL-6" style="edgeStyle=none;rounded=0;orthogonalLoop=1;jettySize=auto;html=1;exitX=0.5;exitY=1;exitDx=0;exitDy=0;entryX=0.5;entryY=0;entryDx=0;entryDy=0;fontSize=17;" edge="1" parent="V5m_YXyf-nwAcqaRBhlr-1" source="V5m_YXyf-nwAcqaRBhlr-21" target="V5m_YXyf-nwAcqaRBhlr-24">
          <mxGeometry relative="1" as="geometry" />
        </mxCell>
        <mxCell id="V5m_YXyf-nwAcqaRBhlr-21" value="`x[n-2], x[3], x[n-3], x[4], ...`" style="rounded=0;whiteSpace=wrap;html=1;fontSize=17;" vertex="1" parent="V5m_YXyf-nwAcqaRBhlr-1">
          <mxGeometry x="280" y="360" width="290" height="40" as="geometry" />
        </mxCell>
        <mxCell id="V5m_YXyf-nwAcqaRBhlr-24" value="[ ]" style="rounded=0;whiteSpace=wrap;html=1;fontSize=17;" vertex="1" parent="V5m_YXyf-nwAcqaRBhlr-1">
          <mxGeometry x="430" y="440" width="40" height="40" as="geometry" />
        </mxCell>
        <mxCell id="V5m_YXyf-nwAcqaRBhlr-26" value="..." style="rounded=0;whiteSpace=wrap;html=1;fontSize=17;" vertex="1" parent="V5m_YXyf-nwAcqaRBhlr-1">
          <mxGeometry x="250" y="440" width="140" height="40" as="geometry" />
        </mxCell>
      </root>
    </mxGraphModel>
  </diagram>
  <diagram id="S5ElkM645lKlA6l1cKPS" name="merge">
    <mxGraphModel dx="1159" dy="784" grid="1" gridSize="10" guides="1" tooltips="1" connect="1" arrows="1" fold="1" page="1" pageScale="1" pageWidth="850" pageHeight="1100" math="0" shadow="0">
      <root>
        <mxCell id="0" />
        <mxCell id="1" parent="0" />
        <mxCell id="fVAbb8LVUVGZVRUWSjaq-1" value="" style="ellipse;whiteSpace=wrap;html=1;aspect=fixed;" parent="1" vertex="1">
          <mxGeometry x="380" y="230" width="30" height="30" as="geometry" />
        </mxCell>
        <mxCell id="fVAbb8LVUVGZVRUWSjaq-2" value="" style="ellipse;whiteSpace=wrap;html=1;aspect=fixed;" parent="1" vertex="1">
          <mxGeometry x="425" y="225" width="40" height="40" as="geometry" />
        </mxCell>
        <mxCell id="fVAbb8LVUVGZVRUWSjaq-3" value="" style="ellipse;whiteSpace=wrap;html=1;aspect=fixed;" parent="1" vertex="1">
          <mxGeometry x="480" y="215" width="60" height="60" as="geometry" />
        </mxCell>
        <mxCell id="fVAbb8LVUVGZVRUWSjaq-4" value="" style="ellipse;whiteSpace=wrap;html=1;aspect=fixed;" parent="1" vertex="1">
          <mxGeometry x="550" y="210" width="70" height="70" as="geometry" />
        </mxCell>
        <mxCell id="fVAbb8LVUVGZVRUWSjaq-5" value="" style="ellipse;whiteSpace=wrap;html=1;aspect=fixed;fillColor=#E6E6E6;" parent="1" vertex="1">
          <mxGeometry x="382.5" y="336.25" width="27.5" height="27.5" as="geometry" />
        </mxCell>
        <mxCell id="fVAbb8LVUVGZVRUWSjaq-6" value="" style="ellipse;whiteSpace=wrap;html=1;aspect=fixed;fillColor=#E6E6E6;" parent="1" vertex="1">
          <mxGeometry x="425" y="325" width="50" height="50" as="geometry" />
        </mxCell>
        <mxCell id="fVAbb8LVUVGZVRUWSjaq-7" value="" style="ellipse;whiteSpace=wrap;html=1;aspect=fixed;fillColor=#E6E6E6;" parent="1" vertex="1">
          <mxGeometry x="480" y="320" width="60" height="60" as="geometry" />
        </mxCell>
        <mxCell id="fVAbb8LVUVGZVRUWSjaq-8" value="" style="ellipse;whiteSpace=wrap;html=1;aspect=fixed;fillColor=#E6E6E6;" parent="1" vertex="1">
          <mxGeometry x="545" y="310" width="80" height="80" as="geometry" />
        </mxCell>
        <mxCell id="fVAbb8LVUVGZVRUWSjaq-9" value="" style="ellipse;whiteSpace=wrap;html=1;aspect=fixed;" parent="1" vertex="1">
          <mxGeometry x="250" y="290.94" width="15" height="15" as="geometry" />
        </mxCell>
        <mxCell id="fVAbb8LVUVGZVRUWSjaq-12" value="" style="ellipse;whiteSpace=wrap;html=1;aspect=fixed;fillColor=#E6E6E6;" parent="1" vertex="1">
          <mxGeometry x="280" y="286.88" width="23.12" height="23.12" as="geometry" />
        </mxCell>
        <mxCell id="fVAbb8LVUVGZVRUWSjaq-13" value="" style="endArrow=none;html=1;rounded=0;" parent="1" edge="1">
          <mxGeometry width="50" height="50" relative="1" as="geometry">
            <mxPoint x="340" y="350" as="sourcePoint" />
            <mxPoint x="340" y="250" as="targetPoint" />
          </mxGeometry>
        </mxCell>
      </root>
    </mxGraphModel>
  </diagram>
  <diagram id="sFBSC9JI7wy2Wy8I70i-" name="work area 1">
    <mxGraphModel dx="1114" dy="776" grid="1" gridSize="10" guides="1" tooltips="1" connect="1" arrows="1" fold="1" page="1" pageScale="1" pageWidth="850" pageHeight="1100" math="1" shadow="0">
      <root>
        <mxCell id="0" />
        <mxCell id="1" parent="0" />
        <mxCell id="xLVihlJHl5eZsSiD1LyH-1" value="&lt;svg style=&quot;vertical-align: 0px;&quot; xmlns:xlink=&quot;http://www.w3.org/1999/xlink&quot; viewBox=&quot;0 -683 763 683&quot; role=&quot;img&quot; height=&quot;1.545ex&quot; width=&quot;1.726ex&quot; xmlns=&quot;http://www.w3.org/2000/svg&quot;&gt;&lt;defs&gt;&lt;path d=&quot;M66 637Q54 637 49 637T39 638T32 641T30 647T33 664T42 682Q44 683 56 683Q104 680 165 680Q288 680 306 683H316Q322 677 322 674T320 656Q316 643 310 637H298Q242 637 242 624Q242 619 292 477T343 333L346 336Q350 340 358 349T379 373T411 410T454 461Q546 568 561 587T577 618Q577 634 545 637Q528 637 528 647Q528 649 530 661Q533 676 535 679T549 683Q551 683 578 682T657 680Q684 680 713 681T746 682Q763 682 763 673Q763 669 760 657T755 643Q753 637 734 637Q662 632 617 587Q608 578 477 424L348 273L322 169Q295 62 295 57Q295 46 363 46Q379 46 384 45T390 35Q390 33 388 23Q384 6 382 4T366 1Q361 1 324 1T232 2Q170 2 138 2T102 1Q84 1 84 9Q84 14 87 24Q88 27 89 30T90 35T91 39T93 42T96 44T101 45T107 45T116 46T129 46Q168 47 180 50T198 63Q201 68 227 171L252 274L129 623Q128 624 127 625T125 627T122 629T118 631T113 633T105 634T96 635T83 636T66 637Z&quot; id=&quot;MJX-11-TEX-I-1D44C&quot;&gt;&lt;/path&gt;&lt;/defs&gt;&lt;g transform=&quot;scale(1,-1)&quot; stroke-width=&quot;0&quot; fill=&quot;currentColor&quot; stroke=&quot;currentColor&quot;&gt;&lt;g data-mml-node=&quot;math&quot;&gt;&lt;g data-mml-node=&quot;mstyle&quot;&gt;&lt;g data-mml-node=&quot;mi&quot;&gt;&lt;use xlink:href=&quot;#MJX-11-TEX-I-1D44C&quot; data-c=&quot;1D44C&quot;&gt;&lt;/use&gt;&lt;/g&gt;&lt;/g&gt;&lt;/g&gt;&lt;/g&gt;&lt;/svg&gt;: 1/4&lt;br&gt;sorted" style="rounded=0;whiteSpace=wrap;html=1;fillColor=#E6E6E6;fontSize=17;fontFamily=Times New Roman;" parent="1" vertex="1">
          <mxGeometry x="305" y="160" width="120" height="60" as="geometry" />
        </mxCell>
        <mxCell id="xLVihlJHl5eZsSiD1LyH-2" value="1/4&lt;br&gt;work area" style="rounded=0;whiteSpace=wrap;html=1;fontSize=17;fontFamily=Times New Roman;" parent="1" vertex="1">
          <mxGeometry x="185" y="160" width="120" height="60" as="geometry" />
        </mxCell>
        <mxCell id="xLVihlJHl5eZsSiD1LyH-3" value="`X`: 1/2&lt;br&gt;sorted" style="rounded=0;whiteSpace=wrap;html=1;fillColor=#E6E6E6;fontSize=17;fontFamily=Times New Roman;" parent="1" vertex="1">
          <mxGeometry x="425" y="160" width="240" height="60" as="geometry" />
        </mxCell>
      </root>
    </mxGraphModel>
  </diagram>
  <diagram id="Qe6csq9e04Aq5G6qgZ7i" name="work area 2">
    <mxGraphModel dx="1114" dy="776" grid="1" gridSize="10" guides="1" tooltips="1" connect="1" arrows="1" fold="1" page="1" pageScale="1" pageWidth="850" pageHeight="1100" math="1" shadow="0">
      <root>
        <mxCell id="0" />
        <mxCell id="1" parent="0" />
        <mxCell id="gQ7xu0Z3LkI8FZ-298Hh-1" value="`Y`: 1/4&lt;br&gt;sorted" style="rounded=0;whiteSpace=wrap;html=1;fillColor=#E6E6E6;fontSize=17;fontFamily=Times New Roman;" parent="1" vertex="1">
          <mxGeometry x="185" y="160" width="120" height="60" as="geometry" />
        </mxCell>
        <mxCell id="gQ7xu0Z3LkI8FZ-298Hh-2" value="1/4&lt;br&gt;work area" style="rounded=0;whiteSpace=wrap;html=1;fontSize=17;fontFamily=Times New Roman;" parent="1" vertex="1">
          <mxGeometry x="305" y="160" width="120" height="60" as="geometry" />
        </mxCell>
        <mxCell id="gQ7xu0Z3LkI8FZ-298Hh-3" value="`X`: 1/2&lt;br&gt;sorted" style="rounded=0;whiteSpace=wrap;html=1;fillColor=#E6E6E6;fontSize=17;fontFamily=Times New Roman;" parent="1" vertex="1">
          <mxGeometry x="425" y="160" width="240" height="60" as="geometry" />
        </mxCell>
        <mxCell id="gQ7xu0Z3LkI8FZ-298Hh-5" value="1/4&lt;br&gt;work area" style="rounded=0;whiteSpace=wrap;html=1;fontSize=17;fontFamily=Times New Roman;" parent="1" vertex="1">
          <mxGeometry x="185" y="310" width="120" height="60" as="geometry" />
        </mxCell>
        <mxCell id="gQ7xu0Z3LkI8FZ-298Hh-6" value="merge `X`, `Y`: 3/4&lt;br&gt;sorted" style="rounded=0;whiteSpace=wrap;html=1;fillColor=#E6E6E6;fontSize=17;fontFamily=Times New Roman;" parent="1" vertex="1">
          <mxGeometry x="300" y="310" width="360" height="60" as="geometry" />
        </mxCell>
      </root>
    </mxGraphModel>
  </diagram>
  <diagram id="9HbztxhSlBMnp61W0JnI" name="nature merge sort">
    <mxGraphModel dx="1159" dy="784" grid="1" gridSize="10" guides="1" tooltips="1" connect="1" arrows="1" fold="1" page="1" pageScale="1" pageWidth="850" pageHeight="1100" math="1" shadow="0">
      <root>
        <mxCell id="0" />
        <mxCell id="1" parent="0" />
        <mxCell id="iVWDSvA2HgpPcOAgDBB7-10" style="edgeStyle=orthogonalEdgeStyle;rounded=0;orthogonalLoop=1;jettySize=auto;html=1;exitX=0;exitY=0.5;exitDx=0;exitDy=0;entryX=0.5;entryY=1;entryDx=0;entryDy=0;fontSize=17;curved=1;strokeWidth=2;strokeColor=#FF3333;" edge="1" parent="1" source="iVWDSvA2HgpPcOAgDBB7-1" target="iVWDSvA2HgpPcOAgDBB7-7">
          <mxGeometry relative="1" as="geometry">
            <Array as="points">
              <mxPoint x="110" y="260" />
              <mxPoint x="110" y="440" />
              <mxPoint x="260" y="440" />
            </Array>
          </mxGeometry>
        </mxCell>
        <mxCell id="iVWDSvA2HgpPcOAgDBB7-1" value="8, 12, 14" style="rounded=0;whiteSpace=wrap;html=1;fontSize=17;" vertex="1" parent="1">
          <mxGeometry x="160" y="240" width="100" height="40" as="geometry" />
        </mxCell>
        <mxCell id="iVWDSvA2HgpPcOAgDBB7-12" style="edgeStyle=orthogonalEdgeStyle;curved=1;rounded=0;orthogonalLoop=1;jettySize=auto;html=1;exitX=0.5;exitY=1;exitDx=0;exitDy=0;entryX=0.25;entryY=0;entryDx=0;entryDy=0;fontSize=17;strokeWidth=2;strokeColor=#3333FF;" edge="1" parent="1" source="iVWDSvA2HgpPcOAgDBB7-2" target="iVWDSvA2HgpPcOAgDBB7-8">
          <mxGeometry relative="1" as="geometry" />
        </mxCell>
        <mxCell id="iVWDSvA2HgpPcOAgDBB7-2" value="0, 1, 4, 11" style="rounded=0;whiteSpace=wrap;html=1;fontSize=17;" vertex="1" parent="1">
          <mxGeometry x="260" y="240" width="120" height="40" as="geometry" />
        </mxCell>
        <mxCell id="iVWDSvA2HgpPcOAgDBB7-3" value="2, 3, 5" style="rounded=0;whiteSpace=wrap;html=1;fontSize=17;" vertex="1" parent="1">
          <mxGeometry x="380" y="240" width="100" height="40" as="geometry" />
        </mxCell>
        <mxCell id="iVWDSvA2HgpPcOAgDBB7-4" value="9" style="rounded=0;whiteSpace=wrap;html=1;fontSize=17;" vertex="1" parent="1">
          <mxGeometry x="480" y="240" width="40" height="40" as="geometry" />
        </mxCell>
        <mxCell id="iVWDSvA2HgpPcOAgDBB7-13" style="edgeStyle=orthogonalEdgeStyle;curved=1;rounded=0;orthogonalLoop=1;jettySize=auto;html=1;exitX=0.75;exitY=1;exitDx=0;exitDy=0;fontSize=17;entryX=0.25;entryY=0;entryDx=0;entryDy=0;strokeWidth=2;strokeColor=#3333FF;" edge="1" parent="1" source="iVWDSvA2HgpPcOAgDBB7-5" target="iVWDSvA2HgpPcOAgDBB7-8">
          <mxGeometry relative="1" as="geometry">
            <mxPoint x="590" y="360" as="targetPoint" />
          </mxGeometry>
        </mxCell>
        <mxCell id="iVWDSvA2HgpPcOAgDBB7-5" value="13, 10, 6" style="rounded=0;whiteSpace=wrap;html=1;fontSize=17;" vertex="1" parent="1">
          <mxGeometry x="520" y="240" width="100" height="40" as="geometry" />
        </mxCell>
        <mxCell id="iVWDSvA2HgpPcOAgDBB7-11" style="edgeStyle=orthogonalEdgeStyle;curved=1;rounded=0;orthogonalLoop=1;jettySize=auto;html=1;exitX=1;exitY=0.5;exitDx=0;exitDy=0;entryX=0.5;entryY=1;entryDx=0;entryDy=0;fontSize=17;strokeWidth=2;strokeColor=#FF3333;" edge="1" parent="1" source="iVWDSvA2HgpPcOAgDBB7-6" target="iVWDSvA2HgpPcOAgDBB7-7">
          <mxGeometry relative="1" as="geometry">
            <Array as="points">
              <mxPoint x="740" y="260" />
              <mxPoint x="740" y="450" />
              <mxPoint x="260" y="450" />
            </Array>
          </mxGeometry>
        </mxCell>
        <mxCell id="iVWDSvA2HgpPcOAgDBB7-6" value="15, 7" style="rounded=0;whiteSpace=wrap;html=1;fontSize=17;" vertex="1" parent="1">
          <mxGeometry x="620" y="240" width="80" height="40" as="geometry" />
        </mxCell>
        <mxCell id="iVWDSvA2HgpPcOAgDBB7-7" value="7, 8, 12, 14, 15" style="rounded=0;whiteSpace=wrap;html=1;fontSize=17;" vertex="1" parent="1">
          <mxGeometry x="160" y="342" width="200" height="40" as="geometry" />
        </mxCell>
        <mxCell id="iVWDSvA2HgpPcOAgDBB7-8" value="13, 11, 10, 6, 4, 1, 0" style="rounded=0;whiteSpace=wrap;html=1;fontSize=17;" vertex="1" parent="1">
          <mxGeometry x="480" y="342" width="220" height="40" as="geometry" />
        </mxCell>
        <mxCell id="iVWDSvA2HgpPcOAgDBB7-9" value="... free cells ..." style="rounded=0;whiteSpace=wrap;html=1;fontSize=17;" vertex="1" parent="1">
          <mxGeometry x="360" y="342" width="120" height="40" as="geometry" />
        </mxCell>
        <mxCell id="iVWDSvA2HgpPcOAgDBB7-14" value="merge" style="text;html=1;strokeColor=none;fillColor=none;align=center;verticalAlign=middle;whiteSpace=wrap;rounded=0;fontSize=17;" vertex="1" parent="1">
          <mxGeometry x="240" y="440" width="60" height="30" as="geometry" />
        </mxCell>
        <mxCell id="iVWDSvA2HgpPcOAgDBB7-15" value="merge" style="text;html=1;strokeColor=none;fillColor=none;align=center;verticalAlign=middle;whiteSpace=wrap;rounded=0;fontSize=17;" vertex="1" parent="1">
          <mxGeometry x="490" y="280" width="60" height="30" as="geometry" />
        </mxCell>
      </root>
    </mxGraphModel>
  </diagram>
  <diagram id="agWvGtOlOARaJXubzIQV" name="bottom up merge sort">
    <mxGraphModel dx="1159" dy="784" grid="1" gridSize="10" guides="1" tooltips="1" connect="1" arrows="1" fold="1" page="1" pageScale="1" pageWidth="850" pageHeight="1100" math="1" shadow="0">
      <root>
        <mxCell id="0" />
        <mxCell id="1" parent="0" />
        <mxCell id="DlTDM-lRr1cF-rONZQ61-13" style="rounded=0;orthogonalLoop=1;jettySize=auto;html=1;exitX=0.5;exitY=0;exitDx=0;exitDy=0;entryX=0.5;entryY=1;entryDx=0;entryDy=0;strokeColor=#000000;strokeWidth=2;fontSize=17;" edge="1" parent="1" source="DlTDM-lRr1cF-rONZQ61-1" target="DlTDM-lRr1cF-rONZQ61-7">
          <mxGeometry relative="1" as="geometry" />
        </mxCell>
        <mxCell id="DlTDM-lRr1cF-rONZQ61-1" value="" style="whiteSpace=wrap;html=1;aspect=fixed;fontSize=17;" vertex="1" parent="1">
          <mxGeometry x="180" y="520" width="40" height="40" as="geometry" />
        </mxCell>
        <mxCell id="DlTDM-lRr1cF-rONZQ61-15" style="edgeStyle=none;rounded=0;orthogonalLoop=1;jettySize=auto;html=1;exitX=0.5;exitY=0;exitDx=0;exitDy=0;entryX=0.5;entryY=1;entryDx=0;entryDy=0;strokeColor=#000000;strokeWidth=2;fontSize=17;" edge="1" parent="1" source="DlTDM-lRr1cF-rONZQ61-2" target="DlTDM-lRr1cF-rONZQ61-8">
          <mxGeometry relative="1" as="geometry" />
        </mxCell>
        <mxCell id="DlTDM-lRr1cF-rONZQ61-2" value="" style="whiteSpace=wrap;html=1;aspect=fixed;fontSize=17;" vertex="1" parent="1">
          <mxGeometry x="260" y="520" width="40" height="40" as="geometry" />
        </mxCell>
        <mxCell id="DlTDM-lRr1cF-rONZQ61-16" style="edgeStyle=none;rounded=0;orthogonalLoop=1;jettySize=auto;html=1;exitX=0.5;exitY=0;exitDx=0;exitDy=0;entryX=0.5;entryY=1;entryDx=0;entryDy=0;strokeColor=#000000;strokeWidth=2;fontSize=17;" edge="1" parent="1" source="DlTDM-lRr1cF-rONZQ61-3" target="DlTDM-lRr1cF-rONZQ61-9">
          <mxGeometry relative="1" as="geometry" />
        </mxCell>
        <mxCell id="DlTDM-lRr1cF-rONZQ61-3" value="" style="whiteSpace=wrap;html=1;aspect=fixed;fontSize=17;" vertex="1" parent="1">
          <mxGeometry x="320" y="520" width="40" height="40" as="geometry" />
        </mxCell>
        <mxCell id="DlTDM-lRr1cF-rONZQ61-17" style="edgeStyle=none;rounded=0;orthogonalLoop=1;jettySize=auto;html=1;exitX=0.5;exitY=0;exitDx=0;exitDy=0;entryX=0.5;entryY=1;entryDx=0;entryDy=0;strokeColor=#000000;strokeWidth=2;fontSize=17;" edge="1" parent="1" source="DlTDM-lRr1cF-rONZQ61-4" target="DlTDM-lRr1cF-rONZQ61-10">
          <mxGeometry relative="1" as="geometry" />
        </mxCell>
        <mxCell id="DlTDM-lRr1cF-rONZQ61-4" value="" style="whiteSpace=wrap;html=1;aspect=fixed;fontSize=17;" vertex="1" parent="1">
          <mxGeometry x="400" y="520" width="40" height="40" as="geometry" />
        </mxCell>
        <mxCell id="DlTDM-lRr1cF-rONZQ61-18" style="edgeStyle=none;rounded=0;orthogonalLoop=1;jettySize=auto;html=1;exitX=0.5;exitY=0;exitDx=0;exitDy=0;entryX=0.5;entryY=1;entryDx=0;entryDy=0;strokeColor=#000000;strokeWidth=2;fontSize=17;" edge="1" parent="1" source="DlTDM-lRr1cF-rONZQ61-5" target="DlTDM-lRr1cF-rONZQ61-11">
          <mxGeometry relative="1" as="geometry" />
        </mxCell>
        <mxCell id="DlTDM-lRr1cF-rONZQ61-5" value="" style="whiteSpace=wrap;html=1;aspect=fixed;fontSize=17;" vertex="1" parent="1">
          <mxGeometry x="480" y="520" width="40" height="40" as="geometry" />
        </mxCell>
        <mxCell id="DlTDM-lRr1cF-rONZQ61-19" style="edgeStyle=none;rounded=0;orthogonalLoop=1;jettySize=auto;html=1;exitX=0.5;exitY=0;exitDx=0;exitDy=0;entryX=0.5;entryY=1;entryDx=0;entryDy=0;strokeColor=#000000;strokeWidth=2;fontSize=17;" edge="1" parent="1" source="DlTDM-lRr1cF-rONZQ61-6" target="DlTDM-lRr1cF-rONZQ61-12">
          <mxGeometry relative="1" as="geometry" />
        </mxCell>
        <mxCell id="DlTDM-lRr1cF-rONZQ61-6" value="" style="whiteSpace=wrap;html=1;aspect=fixed;fontSize=17;" vertex="1" parent="1">
          <mxGeometry x="570" y="520" width="40" height="40" as="geometry" />
        </mxCell>
        <mxCell id="DlTDM-lRr1cF-rONZQ61-7" value="" style="whiteSpace=wrap;html=1;aspect=fixed;fontSize=17;" vertex="1" parent="1">
          <mxGeometry x="200" y="440" width="40" height="40" as="geometry" />
        </mxCell>
        <mxCell id="DlTDM-lRr1cF-rONZQ61-25" style="edgeStyle=none;rounded=0;orthogonalLoop=1;jettySize=auto;html=1;exitX=0;exitY=0;exitDx=0;exitDy=0;entryX=0.5;entryY=1;entryDx=0;entryDy=0;strokeColor=#000000;strokeWidth=2;fontSize=17;" edge="1" parent="1" source="DlTDM-lRr1cF-rONZQ61-8" target="DlTDM-lRr1cF-rONZQ61-21">
          <mxGeometry relative="1" as="geometry" />
        </mxCell>
        <mxCell id="DlTDM-lRr1cF-rONZQ61-8" value="" style="whiteSpace=wrap;html=1;aspect=fixed;fontSize=17;" vertex="1" parent="1">
          <mxGeometry x="240" y="440" width="40" height="40" as="geometry" />
        </mxCell>
        <mxCell id="DlTDM-lRr1cF-rONZQ61-26" style="edgeStyle=none;rounded=0;orthogonalLoop=1;jettySize=auto;html=1;exitX=1;exitY=0;exitDx=0;exitDy=0;entryX=0.5;entryY=1;entryDx=0;entryDy=0;strokeColor=#000000;strokeWidth=2;fontSize=17;" edge="1" parent="1" source="DlTDM-lRr1cF-rONZQ61-9" target="DlTDM-lRr1cF-rONZQ61-22">
          <mxGeometry relative="1" as="geometry" />
        </mxCell>
        <mxCell id="DlTDM-lRr1cF-rONZQ61-9" value="" style="whiteSpace=wrap;html=1;aspect=fixed;fontSize=17;" vertex="1" parent="1">
          <mxGeometry x="340" y="440" width="40" height="40" as="geometry" />
        </mxCell>
        <mxCell id="DlTDM-lRr1cF-rONZQ61-10" value="" style="whiteSpace=wrap;html=1;aspect=fixed;fontSize=17;" vertex="1" parent="1">
          <mxGeometry x="380" y="440" width="40" height="40" as="geometry" />
        </mxCell>
        <mxCell id="DlTDM-lRr1cF-rONZQ61-27" style="edgeStyle=none;rounded=0;orthogonalLoop=1;jettySize=auto;html=1;exitX=1;exitY=0;exitDx=0;exitDy=0;entryX=0.5;entryY=1;entryDx=0;entryDy=0;strokeColor=#000000;strokeWidth=2;fontSize=17;" edge="1" parent="1" source="DlTDM-lRr1cF-rONZQ61-11" target="DlTDM-lRr1cF-rONZQ61-24">
          <mxGeometry relative="1" as="geometry" />
        </mxCell>
        <mxCell id="DlTDM-lRr1cF-rONZQ61-11" value="" style="whiteSpace=wrap;html=1;aspect=fixed;fontSize=17;" vertex="1" parent="1">
          <mxGeometry x="500" y="440" width="40" height="40" as="geometry" />
        </mxCell>
        <mxCell id="DlTDM-lRr1cF-rONZQ61-12" value="" style="whiteSpace=wrap;html=1;aspect=fixed;fontSize=17;" vertex="1" parent="1">
          <mxGeometry x="540" y="440" width="40" height="40" as="geometry" />
        </mxCell>
        <mxCell id="DlTDM-lRr1cF-rONZQ61-20" value="" style="whiteSpace=wrap;html=1;aspect=fixed;fontSize=17;" vertex="1" parent="1">
          <mxGeometry x="240" y="360" width="40" height="40" as="geometry" />
        </mxCell>
        <mxCell id="DlTDM-lRr1cF-rONZQ61-21" value="" style="whiteSpace=wrap;html=1;aspect=fixed;fontSize=17;" vertex="1" parent="1">
          <mxGeometry x="280" y="360" width="40" height="40" as="geometry" />
        </mxCell>
        <mxCell id="DlTDM-lRr1cF-rONZQ61-31" style="edgeStyle=none;rounded=0;orthogonalLoop=1;jettySize=auto;html=1;exitX=0;exitY=0;exitDx=0;exitDy=0;entryX=0.5;entryY=1;entryDx=0;entryDy=0;strokeColor=#000000;strokeWidth=2;fontSize=17;" edge="1" parent="1" source="DlTDM-lRr1cF-rONZQ61-22" target="DlTDM-lRr1cF-rONZQ61-28">
          <mxGeometry relative="1" as="geometry" />
        </mxCell>
        <mxCell id="DlTDM-lRr1cF-rONZQ61-22" value="" style="whiteSpace=wrap;html=1;aspect=fixed;fontSize=17;" vertex="1" parent="1">
          <mxGeometry x="320" y="360" width="40" height="40" as="geometry" />
        </mxCell>
        <mxCell id="DlTDM-lRr1cF-rONZQ61-23" value="" style="whiteSpace=wrap;html=1;aspect=fixed;fontSize=17;" vertex="1" parent="1">
          <mxGeometry x="360" y="360" width="40" height="40" as="geometry" />
        </mxCell>
        <mxCell id="DlTDM-lRr1cF-rONZQ61-30" style="edgeStyle=none;rounded=0;orthogonalLoop=1;jettySize=auto;html=1;exitX=0.5;exitY=0;exitDx=0;exitDy=0;entryX=0.5;entryY=1;entryDx=0;entryDy=0;strokeColor=#000000;strokeWidth=2;fontSize=17;" edge="1" parent="1" source="DlTDM-lRr1cF-rONZQ61-24" target="DlTDM-lRr1cF-rONZQ61-29">
          <mxGeometry relative="1" as="geometry" />
        </mxCell>
        <mxCell id="DlTDM-lRr1cF-rONZQ61-24" value="..." style="text;html=1;strokeColor=none;fillColor=none;align=center;verticalAlign=middle;whiteSpace=wrap;rounded=0;fontSize=17;" vertex="1" parent="1">
          <mxGeometry x="480" y="365" width="60" height="30" as="geometry" />
        </mxCell>
        <mxCell id="DlTDM-lRr1cF-rONZQ61-40" style="edgeStyle=none;rounded=0;orthogonalLoop=1;jettySize=auto;html=1;exitX=0.5;exitY=0;exitDx=0;exitDy=0;entryX=1;entryY=1;entryDx=0;entryDy=0;strokeColor=#000000;strokeWidth=2;fontSize=17;" edge="1" parent="1" source="DlTDM-lRr1cF-rONZQ61-28" target="DlTDM-lRr1cF-rONZQ61-34">
          <mxGeometry relative="1" as="geometry" />
        </mxCell>
        <mxCell id="DlTDM-lRr1cF-rONZQ61-28" value="..." style="text;html=1;strokeColor=none;fillColor=none;align=center;verticalAlign=middle;whiteSpace=wrap;rounded=0;fontSize=17;" vertex="1" parent="1">
          <mxGeometry x="290" y="290" width="60" height="30" as="geometry" />
        </mxCell>
        <mxCell id="DlTDM-lRr1cF-rONZQ61-41" style="edgeStyle=none;rounded=0;orthogonalLoop=1;jettySize=auto;html=1;exitX=0.5;exitY=0;exitDx=0;exitDy=0;entryX=1;entryY=1;entryDx=0;entryDy=0;strokeColor=#000000;strokeWidth=2;fontSize=17;" edge="1" parent="1" source="DlTDM-lRr1cF-rONZQ61-29" target="DlTDM-lRr1cF-rONZQ61-39">
          <mxGeometry relative="1" as="geometry" />
        </mxCell>
        <mxCell id="DlTDM-lRr1cF-rONZQ61-29" value="..." style="text;html=1;strokeColor=none;fillColor=none;align=center;verticalAlign=middle;whiteSpace=wrap;rounded=0;fontSize=17;" vertex="1" parent="1">
          <mxGeometry x="480" y="290" width="60" height="30" as="geometry" />
        </mxCell>
        <mxCell id="DlTDM-lRr1cF-rONZQ61-32" value="" style="whiteSpace=wrap;html=1;aspect=fixed;fontSize=17;" vertex="1" parent="1">
          <mxGeometry x="240" y="210" width="40" height="40" as="geometry" />
        </mxCell>
        <mxCell id="DlTDM-lRr1cF-rONZQ61-33" value="" style="whiteSpace=wrap;html=1;aspect=fixed;fontSize=17;" vertex="1" parent="1">
          <mxGeometry x="280" y="210" width="40" height="40" as="geometry" />
        </mxCell>
        <mxCell id="DlTDM-lRr1cF-rONZQ61-34" value="" style="whiteSpace=wrap;html=1;aspect=fixed;fontSize=17;" vertex="1" parent="1">
          <mxGeometry x="320" y="210" width="40" height="40" as="geometry" />
        </mxCell>
        <mxCell id="DlTDM-lRr1cF-rONZQ61-35" value="" style="whiteSpace=wrap;html=1;aspect=fixed;fontSize=17;" vertex="1" parent="1">
          <mxGeometry x="360" y="210" width="40" height="40" as="geometry" />
        </mxCell>
        <mxCell id="DlTDM-lRr1cF-rONZQ61-36" value="" style="whiteSpace=wrap;html=1;aspect=fixed;fontSize=17;" vertex="1" parent="1">
          <mxGeometry x="460" y="210" width="40" height="40" as="geometry" />
        </mxCell>
        <mxCell id="DlTDM-lRr1cF-rONZQ61-37" value="" style="whiteSpace=wrap;html=1;aspect=fixed;fontSize=17;" vertex="1" parent="1">
          <mxGeometry x="500" y="210" width="40" height="40" as="geometry" />
        </mxCell>
        <mxCell id="DlTDM-lRr1cF-rONZQ61-39" value="..." style="rounded=0;whiteSpace=wrap;html=1;fontSize=17;" vertex="1" parent="1">
          <mxGeometry x="400" y="210" width="60" height="40" as="geometry" />
        </mxCell>
      </root>
    </mxGraphModel>
  </diagram>
</mxfile>
